<svg width="37" height="37" viewBox="0 0 37 37" fill="none" xmlns="http://www.w3.org/2000/svg">
<path fill-rule="evenodd" clip-rule="evenodd" d="M18.4999 4.23959C17.58 4.23959 16.6977 4.60505 16.0472 5.25557C15.3966 5.90608 15.0312 6.78837 15.0312 7.70834V8.10918C15.8899 8.09376 16.8318 8.09376 17.8678 8.09376H19.1336C20.1665 8.09376 21.11 8.09376 21.9702 8.10918V7.70834C21.9702 7.25269 21.8804 6.8015 21.706 6.38055C21.5316 5.95961 21.276 5.57714 20.9537 5.25502C20.6314 4.9329 20.2489 4.67742 19.8278 4.50319C19.4068 4.32896 18.9556 4.23939 18.4999 4.23959ZM24.2812 8.21401V7.70834C24.2812 6.17506 23.6721 4.70458 22.5879 3.62038C21.5037 2.53619 20.0332 1.92709 18.4999 1.92709C16.9666 1.92709 15.4962 2.53619 14.412 3.62038C13.3278 4.70458 12.7187 6.17506 12.7187 7.70834V8.21401C12.4982 8.23251 12.287 8.25409 12.0804 8.2803C10.5233 8.47301 9.24068 8.87693 8.14918 9.78188C7.05922 10.6868 6.4256 11.8739 5.94922 13.3693C5.48672 14.8185 5.1383 16.6793 4.70047 19.0211L4.6681 19.1907C4.04835 22.4945 3.56118 25.0983 3.47022 27.1503C3.37772 29.2547 3.69222 30.9968 4.8793 32.4259C6.06639 33.8566 7.7206 34.4855 9.80493 34.7831C11.8399 35.0729 14.487 35.0729 17.8493 35.0729H19.1521C22.5129 35.0729 25.1615 35.0729 27.1949 34.7831C29.2793 34.4855 30.935 33.8566 32.1221 32.4259C33.3092 30.9968 33.6206 29.2547 33.5296 27.1503C33.4402 25.0983 32.9515 22.4945 32.3318 19.1907L32.3009 19.0211C31.8616 16.6793 31.5116 14.817 31.0522 13.3693C30.5743 11.8739 29.9422 10.6868 28.8507 9.78188C27.7607 8.87693 26.4765 8.47147 24.9194 8.2803C24.7071 8.25426 24.4943 8.23216 24.2812 8.21401ZM12.3641 10.5758C11.046 10.7377 10.2489 11.0445 9.6261 11.5625C9.0048 12.0774 8.55618 12.8036 8.15226 14.0708C7.74064 15.3658 7.41535 17.0894 6.95901 19.5237C6.31768 22.9416 5.86289 25.382 5.78118 27.2521C5.70101 29.0866 5.99701 30.1504 6.65839 30.9505C7.3213 31.7476 8.3126 32.2332 10.1318 32.4922C11.9818 32.7573 14.4669 32.7604 17.9449 32.7604H19.0549C22.5345 32.7604 25.0166 32.7573 26.8681 32.4937C28.6873 32.2332 29.6786 31.7476 30.3415 30.9505C31.0044 30.1519 31.2988 29.0882 31.2202 27.2505C31.137 25.3836 30.6822 22.9416 30.0408 19.5237C29.5845 17.0878 29.2608 15.3673 28.8476 14.0708C28.4437 12.8036 27.9966 12.0774 27.3738 11.561C26.7509 11.0445 25.9554 10.7377 24.6358 10.5743C23.2853 10.4078 21.5324 10.4063 19.0549 10.4063H17.9449C15.4675 10.4063 13.7146 10.4078 12.3641 10.5758Z" fill="black"/>
</svg>
