<svg width="40" height="40" viewBox="0 0 40 40" fill="none" xmlns="http://www.w3.org/2000/svg">
<path fill-rule="evenodd" clip-rule="evenodd" d="M13.75 11.67V10C13.75 8.3424 14.4084 6.75269 15.5805 5.58058C16.7526 4.40848 18.3424 3.75 20 3.75C21.6576 3.75 23.2473 4.40848 24.4194 5.58058C25.5915 6.75269 26.25 8.3424 26.25 10V11.67C30.7233 11.69 33.1 11.87 34.4333 13.4967C35.9333 15.3267 35.3816 18.0933 34.275 23.6283L33.275 28.6283C32.505 32.4767 32.12 34.4 30.7366 35.5333C29.355 36.6667 27.3933 36.6667 23.47 36.6667H16.53C12.605 36.6667 10.6433 36.6667 9.25996 35.5333C7.8783 34.4 7.4933 32.4767 6.7233 28.6283L5.7233 23.6283C4.61663 18.095 4.0633 15.3283 5.5633 13.4967C6.89663 11.87 9.27496 11.69 13.7483 11.67M16.25 10C16.25 9.00544 16.6451 8.05161 17.3483 7.34835C18.0516 6.64509 19.0054 6.25 20 6.25C20.9945 6.25 21.9484 6.64509 22.6516 7.34835C23.3549 8.05161 23.75 9.00544 23.75 10V11.6667H16.25V10ZM25 18.3333C25.442 18.3333 25.8659 18.1577 26.1785 17.8452C26.491 17.5326 26.6666 17.1087 26.6666 16.6667C26.6666 16.2246 26.491 15.8007 26.1785 15.4882C25.8659 15.1756 25.442 15 25 15C24.5579 15 24.134 15.1756 23.8215 15.4882C23.5089 15.8007 23.3333 16.2246 23.3333 16.6667C23.3333 17.1087 23.5089 17.5326 23.8215 17.8452C24.134 18.1577 24.5579 18.3333 25 18.3333ZM16.6666 16.6667C16.6666 17.1087 16.491 17.5326 16.1785 17.8452C15.8659 18.1577 15.442 18.3333 15 18.3333C14.5579 18.3333 14.134 18.1577 13.8215 17.8452C13.5089 17.5326 13.3333 17.1087 13.3333 16.6667C13.3333 16.2246 13.5089 15.8007 13.8215 15.4882C14.134 15.1756 14.5579 15 15 15C15.442 15 15.8659 15.1756 16.1785 15.4882C16.491 15.8007 16.6666 16.2246 16.6666 16.6667Z" fill="#454545"/>
</svg>
