<svg width="37" height="37" viewBox="0 0 37 37" fill="none" xmlns="http://www.w3.org/2000/svg">
<path d="M27.7978 25.6179L34.4008 32.2193L32.2193 34.4008L25.6179 27.7978C23.1616 29.7669 20.1065 30.8378 16.9584 30.8333C9.29937 30.8333 3.08337 24.6173 3.08337 16.9583C3.08337 9.29934 9.29937 3.08334 16.9584 3.08334C24.6174 3.08334 30.8334 9.29934 30.8334 16.9583C30.8379 20.1064 29.7669 23.1616 27.7978 25.6179ZM24.7052 24.474C26.6618 22.4619 27.7545 19.7648 27.75 16.9583C27.75 10.9967 22.92 6.16668 16.9584 6.16668C10.9967 6.16668 6.16671 10.9967 6.16671 16.9583C6.16671 22.92 10.9967 27.75 16.9584 27.75C19.7649 27.7544 22.4619 26.6618 24.474 24.7052L24.7052 24.474Z" fill="black"/>
</svg>
