<svg width="44" height="38" viewBox="0 0 44 38" fill="none" xmlns="http://www.w3.org/2000/svg">
<path d="M34.8334 22.5625C35.1981 22.5625 35.5478 22.6876 35.8057 22.9103C36.0635 23.133 36.2084 23.435 36.2084 23.75V33.6458H38.5C38.8647 33.6458 39.2145 33.7709 39.4723 33.9936C39.7302 34.2163 39.875 34.5183 39.875 34.8333C39.875 35.1482 39.7302 35.4503 39.4723 35.673C39.2145 35.8957 38.8647 36.0208 38.5 36.0208H5.50004C5.13537 36.0208 4.78564 35.8957 4.52777 35.673C4.26991 35.4503 4.12504 35.1482 4.12504 34.8333C4.12504 34.5183 4.26991 34.2163 4.52777 33.9936C4.78564 33.7709 5.13537 33.6458 5.50004 33.6458H7.79171V23.75C7.79171 23.435 7.93658 23.133 8.19444 22.9103C8.4523 22.6876 8.80204 22.5625 9.16671 22.5625C9.53138 22.5625 9.88112 22.6876 10.139 22.9103C10.3968 23.133 10.5417 23.435 10.5417 23.75V33.6458H33.4584V23.75C33.4584 23.435 33.6032 23.133 33.8611 22.9103C34.119 22.6876 34.4687 22.5625 34.8334 22.5625ZM30.3014 3.16663H13.6987C11.4932 3.16663 10.3914 3.16663 9.50588 3.64004C8.61855 4.11188 8.12538 4.96371 7.14088 6.66738L4.56504 12.2866C3.97104 13.585 3.45038 15.1145 4.45138 16.2117C4.92294 16.7295 5.56975 17.1074 6.30171 17.2927C7.03366 17.4781 7.81433 17.4617 8.53499 17.2458C9.25564 17.0299 9.88039 16.6253 10.3222 16.0883C10.7641 15.5513 11.001 14.9087 11 14.25C11 15.0898 11.3864 15.8953 12.074 16.4891C12.7616 17.083 13.6943 17.4166 14.6667 17.4166C15.6392 17.4166 16.5718 17.083 17.2594 16.4891C17.9471 15.8953 18.3334 15.0898 18.3334 14.25C18.3334 15.0898 18.7197 15.8953 19.4073 16.4891C20.095 17.083 21.0276 17.4166 22 17.4166C22.9725 17.4166 23.9051 17.083 24.5928 16.4891C25.2804 15.8953 25.6667 15.0898 25.6667 14.25C25.6667 15.0898 26.053 15.8953 26.7407 16.4891C27.4283 17.083 28.3609 17.4166 29.3334 17.4166C30.3058 17.4166 31.2385 17.083 31.9261 16.4891C32.6137 15.8953 33 15.0898 33 14.25C32.9999 14.9082 33.2373 15.5501 33.6792 16.0864C34.1211 16.6227 34.7456 17.0268 35.4657 17.2424C36.1858 17.458 36.9658 17.4744 37.6973 17.2894C38.4287 17.1044 39.0752 16.7272 39.5469 16.2101C40.5479 15.1129 40.0272 13.5834 39.4332 12.285L36.8592 6.66738C35.8747 4.96371 35.3815 4.11188 34.4942 3.64004C33.6087 3.16663 32.5069 3.16663 30.3014 3.16663Z" fill="white"/>
</svg>
