<svg width="40" height="40" viewBox="0 0 40 40" fill="none" xmlns="http://www.w3.org/2000/svg">
<path d="M9.85526 8.47346C8.43496 8.47346 7.07283 9.03768 6.06852 10.042C5.06421 11.0463 4.5 12.4084 4.5 13.8287V16.2629H35.6579V13.8287C35.6579 12.4084 35.0937 11.0463 34.0894 10.042C33.0851 9.03768 31.7229 8.47346 30.3026 8.47346H9.85526ZM35.6579 18.2103H4.5V26.4866C4.5 27.9069 5.06421 29.2691 6.06852 30.2734C7.07283 31.2777 8.43496 31.8419 9.85526 31.8419H30.3026C31.7229 31.8419 33.0851 31.2777 34.0894 30.2734C35.0937 29.2691 35.6579 27.9069 35.6579 26.4866V18.2103ZM26.8947 25.9998H30.7895C31.0477 25.9998 31.2954 26.1024 31.478 26.285C31.6606 26.4676 31.7632 26.7152 31.7632 26.9735C31.7632 27.2317 31.6606 27.4794 31.478 27.662C31.2954 27.8446 31.0477 27.9471 30.7895 27.9471H26.8947C26.6365 27.9471 26.3888 27.8446 26.2062 27.662C26.0236 27.4794 25.9211 27.2317 25.9211 26.9735C25.9211 26.7152 26.0236 26.4676 26.2062 26.285C26.3888 26.1024 26.6365 25.9998 26.8947 25.9998Z" fill="#454545"/>
</svg>
