<svg width="40" height="40" viewBox="0 0 40 40" fill="none" xmlns="http://www.w3.org/2000/svg">
<path d="M9.5 7.99977C8.04131 7.99977 6.64236 8.57923 5.61091 9.61068C4.57946 10.6421 4 12.0411 4 13.4998V15.9998H36V13.4998C36 12.0411 35.4205 10.6421 34.3891 9.61068C33.3576 8.57923 31.9587 7.99977 30.5 7.99977H9.5ZM36 17.9998H4V26.4998C4 27.9585 4.57946 29.3574 5.61091 30.3889C6.64236 31.4203 8.04131 31.9998 9.5 31.9998H30.5C31.9587 31.9998 33.3576 31.4203 34.3891 30.3889C35.4205 29.3574 36 27.9585 36 26.4998V17.9998ZM27 25.9998H31C31.2652 25.9998 31.5196 26.1051 31.7071 26.2927C31.8946 26.4802 32 26.7346 32 26.9998C32 27.265 31.8946 27.5193 31.7071 27.7069C31.5196 27.8944 31.2652 27.9998 31 27.9998H27C26.7348 27.9998 26.4804 27.8944 26.2929 27.7069C26.1054 27.5193 26 27.265 26 26.9998C26 26.7346 26.1054 26.4802 26.2929 26.2927C26.4804 26.1051 26.7348 25.9998 27 25.9998Z" fill="#829B7E"/>
</svg>
