<svg width="23" height="23" viewBox="0 0 23 23" fill="none" xmlns="http://www.w3.org/2000/svg">
<path fill-rule="evenodd" clip-rule="evenodd" d="M11.6944 2.53122C11.1451 2.53122 10.6183 2.74942 10.2299 3.13781C9.84155 3.52621 9.62335 4.05298 9.62335 4.60225V4.84157C10.136 4.83236 10.6984 4.83236 11.317 4.83236H12.0727C12.6894 4.83236 13.2527 4.83236 13.7663 4.84157V4.60225C13.7663 4.3302 13.7127 4.06082 13.6086 3.80949C13.5044 3.55816 13.3518 3.32981 13.1594 3.13749C12.967 2.94516 12.7386 2.79263 12.4872 2.68861C12.2358 2.58458 11.9664 2.5311 11.6944 2.53122ZM15.1461 4.90416V4.60225C15.1461 3.6868 14.7824 2.80884 14.1351 2.16152C13.4878 1.5142 12.6098 1.15054 11.6944 1.15054C10.7789 1.15054 9.90097 1.5142 9.25365 2.16152C8.60633 2.80884 8.24267 3.6868 8.24267 4.60225V4.90416C8.11105 4.9152 7.98494 4.92809 7.8616 4.94374C6.93194 5.05879 6.16612 5.29995 5.51444 5.84026C4.86368 6.38057 4.48537 7.08932 4.20095 7.98216C3.92482 8.84738 3.7168 9.95837 3.45539 11.3565L3.43606 11.4578C3.06603 13.4303 2.77517 14.985 2.72086 16.2101C2.66564 17.4665 2.85341 18.5066 3.56216 19.3599C4.27091 20.2141 5.25856 20.5896 6.50301 20.7673C7.71801 20.9403 9.29843 20.9403 11.3059 20.9403H12.0837C14.0903 20.9403 15.6717 20.9403 16.8857 20.7673C18.1302 20.5896 19.1188 20.2141 19.8275 19.3599C20.5363 18.5066 20.7222 17.4665 20.6679 16.2101C20.6145 14.985 20.3227 13.4303 19.9527 11.4578L19.9343 11.3565C19.672 9.95837 19.463 8.84646 19.1887 7.98216C18.9034 7.08932 18.526 6.38057 17.8743 5.84026C17.2235 5.29995 16.4568 5.05787 15.5271 4.94374C15.4004 4.92819 15.2733 4.91499 15.1461 4.90416ZM8.03097 6.31429C7.24398 6.41094 6.7681 6.59411 6.39624 6.90338C6.0253 7.21082 5.75744 7.64435 5.51628 8.40096C5.27052 9.17414 5.07631 10.2032 4.80385 11.6566C4.42094 13.6973 4.14941 15.1543 4.10063 16.2708C4.05276 17.3662 4.22949 18.0013 4.62436 18.479C5.02016 18.9549 5.61201 19.2448 6.69815 19.3995C7.80269 19.5578 9.28647 19.5596 11.363 19.5596H12.0257C14.1032 19.5596 15.5851 19.5578 16.6906 19.4004C17.7767 19.2448 18.3686 18.9549 18.7644 18.479C19.1602 18.0022 19.336 17.3671 19.289 16.2699C19.2393 15.1553 18.9678 13.6973 18.5849 11.6566C18.3124 10.2023 18.1191 9.17507 17.8725 8.40096C17.6313 7.64435 17.3644 7.21082 16.9925 6.90246C16.6206 6.59411 16.1457 6.41094 15.3578 6.31337C14.5515 6.21396 13.5049 6.21304 12.0257 6.21304H11.363C9.88384 6.21304 8.83728 6.21396 8.03097 6.31429Z" fill="#829B7E"/>
</svg>
