<svg width="40" height="40" viewBox="0 0 40 40" fill="none" xmlns="http://www.w3.org/2000/svg">
<path fill-rule="evenodd" clip-rule="evenodd" d="M13.7505 11.67V10C13.7505 8.3424 14.4089 6.75269 15.581 5.58058C16.7531 4.40848 18.3428 3.75 20.0005 3.75C21.6581 3.75 23.2478 4.40848 24.4199 5.58058C25.592 6.75269 26.2505 8.3424 26.2505 10V11.67C30.7238 11.69 33.1005 11.87 34.4338 13.4967C35.9338 15.3267 35.3821 18.0933 34.2755 23.6283L33.2755 28.6283C32.5055 32.4767 32.1205 34.4 30.7371 35.5333C29.3555 36.6667 27.3938 36.6667 23.4705 36.6667H16.5305C12.6055 36.6667 10.6438 36.6667 9.26045 35.5333C7.87878 34.4 7.49378 32.4767 6.72378 28.6283L5.72378 23.6283C4.61712 18.095 4.06378 15.3283 5.56378 13.4967C6.89712 11.87 9.27545 11.69 13.7488 11.67M16.2505 10C16.2505 9.00544 16.6455 8.05161 17.3488 7.34835C18.0521 6.64509 19.0059 6.25 20.0005 6.25C20.995 6.25 21.9488 6.64509 22.6521 7.34835C23.3554 8.05161 23.7505 9.00544 23.7505 10V11.6667H16.2505V10ZM25.0005 18.3333C25.4425 18.3333 25.8664 18.1577 26.179 17.8452C26.4915 17.5326 26.6671 17.1087 26.6671 16.6667C26.6671 16.2246 26.4915 15.8007 26.179 15.4882C25.8664 15.1756 25.4425 15 25.0005 15C24.5584 15 24.1345 15.1756 23.8219 15.4882C23.5094 15.8007 23.3338 16.2246 23.3338 16.6667C23.3338 17.1087 23.5094 17.5326 23.8219 17.8452C24.1345 18.1577 24.5584 18.3333 25.0005 18.3333ZM16.6671 16.6667C16.6671 17.1087 16.4915 17.5326 16.179 17.8452C15.8664 18.1577 15.4425 18.3333 15.0005 18.3333C14.5584 18.3333 14.1345 18.1577 13.8219 17.8452C13.5094 17.5326 13.3338 17.1087 13.3338 16.6667C13.3338 16.2246 13.5094 15.8007 13.8219 15.4882C14.1345 15.1756 14.5584 15 15.0005 15C15.4425 15 15.8664 15.1756 16.179 15.4882C16.4915 15.8007 16.6671 16.2246 16.6671 16.6667Z" fill="#829B7E"/>
</svg>
