<svg width="43" height="34" viewBox="0 0 43 34" fill="none" xmlns="http://www.w3.org/2000/svg">
<g clip-path="url(#clip0_46_1815)">
<path d="M7.81752 33.2597V31.0473C7.81752 30.1991 7.30118 29.6462 6.41615 29.6462C5.97372 29.6462 5.49434 29.7936 5.16243 30.273C4.90443 29.8674 4.53574 29.6462 3.98262 29.6462C3.61376 29.6462 3.24524 29.7567 2.95012 30.1623V29.7199H2.17578V33.2597H2.95012V31.3053C2.95012 30.6787 3.28202 30.3835 3.79836 30.3835C4.31436 30.3835 4.5727 30.7154 4.5727 31.3053V33.2597H5.34703V31.3053C5.34703 30.6787 5.71555 30.3835 6.19494 30.3835C6.71127 30.3835 6.96927 30.7154 6.96927 31.3053V33.2597H7.81752ZM19.2849 29.7199H18.0314V28.6506H17.257V29.7199H16.5564V30.4203H17.2569V32.0429C17.2569 32.8542 17.5888 33.3334 18.4738 33.3334C18.8057 33.3334 19.1742 33.2229 19.4326 33.0754L19.2112 32.4116C18.99 32.5591 18.732 32.596 18.5475 32.596C18.1788 32.596 18.0314 32.3748 18.0314 32.0059V30.4203H19.2849V29.7199ZM25.8485 29.646C25.406 29.646 25.1111 29.8674 24.9266 30.1623V29.7199H24.1523V33.2597H24.9266V31.2686C24.9266 30.6787 25.1846 30.3468 25.664 30.3468C25.8115 30.3468 25.9959 30.3837 26.1434 30.4205L26.3646 29.6831C26.2171 29.6462 25.9959 29.6462 25.8485 29.6462M15.9296 30.015C15.5607 29.7568 15.0445 29.6463 14.4914 29.6463C13.6066 29.6463 13.0167 30.0888 13.0167 30.7893C13.0167 31.3794 13.4591 31.7112 14.2334 31.8219L14.6021 31.8588C15.0078 31.9324 15.229 32.0431 15.229 32.2275C15.229 32.4855 14.934 32.6699 14.4177 32.6699C13.9015 32.6699 13.4959 32.4855 13.2377 32.3012L12.869 32.8911C13.2747 33.1861 13.8278 33.3336 14.3807 33.3336C15.4132 33.3336 16.0033 32.8544 16.0033 32.1905C16.0033 31.5637 15.5239 31.2318 14.7864 31.1213L14.4177 31.0843C14.0858 31.0473 13.8278 30.9738 13.8278 30.7526C13.8278 30.4944 14.0858 30.3469 14.4914 30.3469C14.934 30.3469 15.3764 30.5312 15.5977 30.6419L15.9296 30.015ZM36.5049 29.6463C36.0623 29.6463 35.7673 29.8675 35.5829 30.1625V29.7201H34.8086V33.2598H35.5829V31.2687C35.5829 30.6788 35.8411 30.3469 36.3203 30.3469C36.4679 30.3469 36.6524 30.3839 36.7999 30.4207L37.0211 29.6833C36.8736 29.6463 36.6524 29.6463 36.5049 29.6463ZM26.6228 31.4899C26.6228 32.5592 27.3602 33.3336 28.5034 33.3336C29.0195 33.3336 29.3882 33.223 29.7569 32.9281L29.3882 32.3012C29.0933 32.5224 28.7983 32.633 28.4664 32.633C27.8396 32.633 27.3971 32.1905 27.3971 31.4899C27.3971 30.8263 27.8396 30.3837 28.4664 30.3469C28.7983 30.3469 29.0933 30.4574 29.3882 30.6788L29.7569 30.052C29.3882 29.7568 29.0195 29.6463 28.5034 29.6463C27.3602 29.6463 26.6228 30.4207 26.6228 31.4899ZM33.7762 31.4899V29.7201H33.0019V30.1625C32.7437 29.8308 32.3751 29.6463 31.8957 29.6463C30.9001 29.6463 30.1258 30.4207 30.1258 31.4899C30.1258 32.5592 30.9001 33.3336 31.8957 33.3336C32.4118 33.3336 32.7807 33.1493 33.0019 32.8174V33.2598H33.7762V31.4899ZM30.9369 31.4899C30.9369 30.8631 31.3425 30.3469 32.0062 30.3469C32.6331 30.3469 33.0756 30.8263 33.0756 31.4899C33.0756 32.1168 32.6331 32.633 32.0062 32.633C31.3425 32.596 30.9369 32.1168 30.9369 31.4899ZM21.6818 29.6463C20.6493 29.6463 19.9118 30.3837 19.9118 31.4899C19.9118 32.5962 20.6492 33.3336 21.7186 33.3336C22.2348 33.3336 22.7511 33.1861 23.1568 32.8544L22.7879 32.3012C22.4929 32.5224 22.1243 32.6699 21.7556 32.6699C21.2762 32.6699 20.7968 32.4487 20.6861 31.8217H23.3042V31.5269C23.3412 30.3837 22.6775 29.6463 21.6818 29.6463ZM21.6817 30.31C22.1609 30.31 22.4929 30.6051 22.5665 31.1582H20.7229C20.7966 30.6788 21.1285 30.31 21.6817 30.31ZM40.8926 31.4899V28.3189H40.1182V30.1625C39.8601 29.8308 39.4914 29.6463 39.012 29.6463C38.0164 29.6463 37.2421 30.4207 37.2421 31.4899C37.2421 32.5592 38.0164 33.3336 39.012 33.3336C39.5283 33.3336 39.897 33.1493 40.1182 32.8174V33.2598H40.8926V31.4899ZM38.0534 31.4899C38.0534 30.8631 38.4589 30.3469 39.1227 30.3469C39.7495 30.3469 40.192 30.8263 40.192 31.4899C40.192 32.1168 39.7495 32.633 39.1227 32.633C38.4589 32.596 38.0534 32.1168 38.0534 31.4899ZM12.1682 31.4899V29.7201H11.3939V30.1625C11.1357 29.8308 10.767 29.6463 10.2877 29.6463C9.29211 29.6463 8.51778 30.4207 8.51778 31.4899C8.51778 32.5592 9.29211 33.3336 10.2877 33.3336C10.804 33.3336 11.1727 33.1493 11.3939 32.8174V33.2598H12.1682V31.4899ZM9.29211 31.4899C9.29211 30.8631 9.69776 30.3469 10.3614 30.3469C10.9883 30.3469 11.4309 30.8263 11.4309 31.4899C11.4309 32.1168 10.9883 32.633 10.3614 32.633C9.69776 32.596 9.29211 32.1168 9.29211 31.4899Z" fill="black"/>
<path d="M15.6699 2.83917H27.285V23.7095H15.6699V2.83917Z" fill="#FF5F00"/>
<path d="M16.4087 13.2744C16.4087 9.03403 18.3998 5.27287 21.4602 2.83918C19.2111 1.06929 16.3719 0 13.2746 0C5.93652 0 0 5.93652 0 13.2744C0 20.6121 5.93652 26.5488 13.2744 26.5488C16.3717 26.5488 19.2109 25.4795 21.4602 23.7095C18.3998 21.3127 16.4087 17.5148 16.4087 13.2744Z" fill="#EB001B"/>
<path d="M42.9582 13.2744C42.9582 20.6121 37.0217 26.5488 29.6838 26.5488C26.5865 26.5488 23.7473 25.4795 21.498 23.7095C24.5954 21.2759 26.5497 17.5148 26.5497 13.2744C26.5497 9.03403 24.5584 5.27287 21.498 2.83918C23.7471 1.06929 26.5865 0 29.6838 0C37.0217 0 42.9582 5.97347 42.9582 13.2744Z" fill="#F79E1B"/>
</g>
<defs>
<clipPath id="clip0_46_1815">
<rect width="43" height="33.4258" fill="white"/>
</clipPath>
</defs>
</svg>
