<svg width="25" height="29" viewBox="0 0 25 29" fill="none" xmlns="http://www.w3.org/2000/svg">
<g clip-path="url(#clip0_46_1820)">
<path d="M20.5174 2.2208C19.201 0.720363 16.8214 0.0770874 13.7771 0.0770874H4.9419C4.6407 0.0770986 4.34938 0.184556 4.12032 0.380139C3.89126 0.575723 3.73949 0.846604 3.69228 1.14408L0.0134529 24.4761C-0.0596703 24.9362 0.296593 25.3528 0.762918 25.3528H6.21749L7.58737 16.6639L7.54485 16.936C7.64245 16.3219 8.16772 15.8689 8.78974 15.8689H11.3817C16.4737 15.8689 20.4608 13.8006 21.6255 7.81765C21.6601 7.6407 21.69 7.46848 21.7159 7.30022C21.5689 7.22237 21.5689 7.22237 21.7159 7.30022C22.0627 5.08886 21.7135 3.5836 20.5174 2.2208Z" fill="#27346A"/>
<path d="M9.67449 6.50361C9.82361 6.4326 9.98671 6.39581 10.1519 6.39591H17.0785C17.8988 6.39591 18.6638 6.44929 19.3629 6.56181C19.5586 6.593 19.7532 6.63024 19.9465 6.67347C20.2205 6.73394 20.4914 6.80794 20.758 6.89521C21.1017 7.00999 21.4218 7.14367 21.716 7.30022C22.0627 5.08801 21.7135 3.5836 20.5174 2.2208C19.2002 0.720363 16.8214 0.0770874 13.7771 0.0770874H4.94114C4.31903 0.0770874 3.78978 0.529997 3.69228 1.14408L0.0134534 24.4753C-0.0596697 24.9361 0.296593 25.3522 0.762163 25.3522H6.21749L9.05956 7.32932C9.08751 7.15217 9.15807 6.98446 9.26519 6.84062C9.37231 6.69679 9.51277 6.58113 9.67449 6.50361Z" fill="#27346A"/>
<path d="M21.6251 7.81765C20.4604 13.7998 16.4734 15.8688 11.3813 15.8688H8.78858C8.16656 15.8688 7.64119 16.3219 7.54454 16.936L5.84032 27.7396C5.77664 28.1423 6.08803 28.5072 6.4954 28.5072H11.0935C11.3569 28.5071 11.6116 28.413 11.8118 28.2419C12.0121 28.0708 12.1447 27.8339 12.1859 27.5737L12.2307 27.3395L13.0973 21.8471L13.1531 21.5435C13.1943 21.2834 13.3269 21.0465 13.5271 20.8754C13.7273 20.7043 13.982 20.6102 14.2454 20.6101H14.9336C19.3877 20.6101 22.8755 18.8006 23.8946 13.5671C24.3201 11.38 24.0999 9.554 22.9746 8.27141C22.6332 7.88293 22.2093 7.5621 21.7155 7.30022C21.6888 7.46933 21.6598 7.6407 21.6251 7.81765Z" fill="#2790C3"/>
<path d="M20.4963 6.81424C20.3147 6.76121 20.1314 6.71427 19.9467 6.67348C19.7532 6.63095 19.5586 6.59396 19.3631 6.56256C18.6632 6.44929 17.8987 6.39582 17.0778 6.39582H10.1519C9.98665 6.39544 9.82343 6.43256 9.67456 6.50437C9.51266 6.58165 9.37204 6.69724 9.26487 6.84111C9.15771 6.98499 9.08723 7.15282 9.05953 7.33007L7.58744 16.6639L7.54492 16.936C7.64176 16.3219 8.16704 15.8689 8.78915 15.8689H11.3819C16.4739 15.8689 20.4609 13.8006 21.6256 7.81765C21.6602 7.6407 21.6893 7.46923 21.7161 7.30022C21.4211 7.14453 21.1019 7.00999 20.7581 6.89596C20.6714 6.8672 20.5841 6.83996 20.4964 6.81424" fill="#1F264F"/>
</g>
<defs>
<clipPath id="clip0_46_1820">
<rect width="24.1854" height="28.5312" fill="white"/>
</clipPath>
</defs>
</svg>
