<svg width="37" height="37" viewBox="0 0 37 37" fill="none" xmlns="http://www.w3.org/2000/svg">
<path d="M6.16663 27.75C6.16663 26.1145 6.81633 24.546 7.9728 23.3895C9.12927 22.233 10.6978 21.5833 12.3333 21.5833H24.6666C26.3021 21.5833 27.8706 22.233 29.0271 23.3895C30.1836 24.546 30.8333 26.1145 30.8333 27.75C30.8333 28.5677 30.5084 29.352 29.9302 29.9302C29.352 30.5085 28.5677 30.8333 27.75 30.8333H9.24996C8.43221 30.8333 7.64795 30.5085 7.06971 29.9302C6.49148 29.352 6.16663 28.5677 6.16663 27.75Z" stroke="black" stroke-width="2.5" stroke-linejoin="round"/>
<path d="M18.5 15.4167C21.0543 15.4167 23.125 13.346 23.125 10.7917C23.125 8.23734 21.0543 6.16666 18.5 6.16666C15.9457 6.16666 13.875 8.23734 13.875 10.7917C13.875 13.346 15.9457 15.4167 18.5 15.4167Z" stroke="black" stroke-width="2.5"/>
</svg>
