<svg width="40" height="40" viewBox="0 0 40 40" fill="none" xmlns="http://www.w3.org/2000/svg">
<path d="M20 5C28.2843 5 35 11.7157 35 20C35 28.2843 28.2843 35 20 35C11.7157 35 5 28.2843 5 20C5 11.7157 11.7157 5 20 5ZM20 26.25C18.9645 26.25 18.125 27.0895 18.125 28.125C18.125 29.1605 18.9645 30 20 30C21.0355 30 21.875 29.1605 21.875 28.125C21.875 27.0895 21.0355 26.25 20 26.25ZM20 11.25C17.2386 11.25 15 13.4886 15 16.25C15 16.9404 15.5596 17.5 16.25 17.5C16.9404 17.5 17.5 16.9404 17.5 16.25C17.5 14.8693 18.6193 13.75 20 13.75C21.3807 13.75 22.5 14.8693 22.5 16.25C22.5 17.1764 22.2936 17.6983 21.5849 18.4939L21.2951 18.8064L20.6349 19.4802C19.2794 20.9008 18.75 21.9237 18.75 23.75C18.75 24.4404 19.3096 25 20 25C20.6904 25 21.25 24.4404 21.25 23.75C21.25 22.8236 21.4564 22.3017 22.1651 21.5061L22.4549 21.1936L23.1151 20.5198C24.4706 19.0992 25 18.0763 25 16.25C25 13.4886 22.7614 11.25 20 11.25Z" fill="#454545"/>
</svg>
