<svg width="56" height="18" viewBox="0 0 56 18" fill="none" xmlns="http://www.w3.org/2000/svg">
<g clip-path="url(#clip0_46_1813)">
<path d="M28.7126 5.73137C28.6809 8.22881 30.9383 9.6224 32.6388 10.4511C34.3859 11.3012 34.9727 11.8464 34.9658 12.6067C34.9527 13.7702 33.5722 14.2838 32.2803 14.3037C30.0264 14.3386 28.7159 13.6952 27.674 13.2085L26.8621 17.0078C27.9074 17.4895 29.8429 17.9096 31.85 17.928C36.5615 17.928 39.6438 15.6023 39.6605 11.9965C39.6789 7.42011 33.3306 7.16681 33.374 5.12132C33.3889 4.50108 33.9808 3.8392 35.2776 3.67091C35.9195 3.5859 37.6916 3.52084 39.7006 4.44599L40.4892 0.770092C39.4087 0.376694 38.0201 -5.72205e-06 36.2913 -5.72205e-06C31.8567 -5.72205e-06 28.7378 2.35734 28.7126 5.73137ZM48.0661 0.316622C47.2058 0.316622 46.4808 0.818451 46.1572 1.58855L39.4272 17.658H44.1351L45.072 15.0688H50.8251L51.3685 17.658H55.5181L51.897 0.316622H48.0661ZM48.7247 5.00117L50.0834 11.5131H46.3624L48.7247 5.00117ZM23.0044 0.316837L19.2934 17.6578H23.7797L27.489 0.316404L23.0044 0.316837ZM16.3676 0.316837L11.698 12.1198L9.80913 2.08387C9.58749 0.963537 8.71222 0.316622 7.74022 0.316622H0.106916L0 0.820187C1.56708 1.16023 3.34757 1.70869 4.42627 2.29554C5.08641 2.65402 5.27465 2.96739 5.49152 3.81925L9.06918 17.658H13.8101L21.0787 0.316622L16.3676 0.316837Z" fill="url(#paint0_linear_46_1813)"/>
</g>
<defs>
<linearGradient id="paint0_linear_46_1813" x1="2552.39" y1="53.8916" x2="2604.28" y2="-1787.34" gradientUnits="userSpaceOnUse">
<stop stop-color="#222357"/>
<stop offset="1" stop-color="#254AA5"/>
</linearGradient>
<clipPath id="clip0_46_1813">
<rect width="55.5181" height="18" fill="white"/>
</clipPath>
</defs>
</svg>
