<svg width="37" height="28" viewBox="0 0 37 28" fill="none" xmlns="http://www.w3.org/2000/svg">
<g clip-path="url(#clip0_28_195)">
<path d="M8.38799 27.5283V13.3645L3.99536 9.34588L0.0563965 7.11584V25.0287C0.0563965 26.4117 1.17693 27.5283 2.55593 27.5283H8.38799Z" fill="#4285F4"/>
<path d="M28.3837 27.5282H34.2157C35.5989 27.5282 36.7153 26.4076 36.7153 25.0287V7.11597L32.2538 9.6702L28.3837 13.3644V27.5282Z" fill="#34A853"/>
<path d="M8.38799 13.3644L7.79028 7.83023L8.38799 2.53345L18.3858 10.0319L28.3837 2.53345L29.0523 7.54426L28.3837 13.3644L18.3858 20.8629L8.38799 13.3644Z" fill="#EA4335"/>
<path d="M28.3837 2.53361V13.3646L36.7153 7.11597V3.7833C36.7153 0.692357 33.1868 -1.0697 30.7167 0.784004L28.3837 2.53361Z" fill="#FBBC04"/>
<path d="M0.0563965 7.11567L3.88825 9.98966L8.38799 13.3643V2.53331L6.05499 0.783703C3.58052 -1.07015 0.0563965 0.692056 0.0563965 3.78286V7.11567Z" fill="#C5221F"/>
</g>
<defs>
<clipPath id="clip0_28_195">
<rect width="36.6589" height="27.6374" fill="white" transform="translate(0.0563965 0.0267334)"/>
</clipPath>
</defs>
</svg>
