<svg width="28" height="28" viewBox="0 0 28 28" fill="none" xmlns="http://www.w3.org/2000/svg">
<g clip-path="url(#clip0_29_518)">
<path d="M21.2546 0.33606H6.57229C2.99487 0.33606 0.0947876 3.23614 0.0947876 6.81357V21.4959C0.0947876 25.0733 2.99487 27.9734 6.57229 27.9734H21.2546C24.8321 27.9734 27.7321 25.0733 27.7321 21.4959V6.81357C27.7321 3.23614 24.8321 0.33606 21.2546 0.33606Z" fill="white"/>
<path d="M21.2546 0.33606H6.57229C2.99487 0.33606 0.0947876 3.23614 0.0947876 6.81357V21.4959C0.0947876 25.0733 2.99487 27.9734 6.57229 27.9734H21.2546C24.8321 27.9734 27.7321 25.0733 27.7321 21.4959V6.81357C27.7321 3.23614 24.8321 0.33606 21.2546 0.33606Z" fill="#0A66C2"/>
<path d="M20.0363 23.8369H23.1963C23.3108 23.8369 23.4206 23.7914 23.5016 23.7104C23.5826 23.6295 23.6281 23.5197 23.6281 23.4051L23.6297 16.7288C23.6297 13.2392 22.8778 10.557 18.7999 10.557C17.2497 10.4994 15.7878 11.2985 14.999 12.6328C14.9951 12.6393 14.9893 12.6444 14.9823 12.6472C14.9753 12.65 14.9676 12.6505 14.9603 12.6485C14.953 12.6465 14.9466 12.6422 14.9419 12.6363C14.9373 12.6303 14.9348 12.623 14.9348 12.6154V11.311C14.9348 11.1965 14.8893 11.0866 14.8083 11.0056C14.7273 10.9247 14.6174 10.8792 14.5029 10.8792H11.5042C11.3896 10.8792 11.2798 10.9247 11.1988 11.0056C11.1178 11.0866 11.0723 11.1965 11.0723 11.311V23.4045C11.0723 23.519 11.1178 23.6289 11.1988 23.7098C11.2798 23.7908 11.3896 23.8363 11.5042 23.8363H14.6639C14.7784 23.8363 14.8883 23.7908 14.9692 23.7098C15.0502 23.6289 15.0957 23.519 15.0957 23.4045V17.4265C15.0957 15.7362 15.4164 14.0992 17.5119 14.0992C19.5777 14.0992 19.6045 16.0334 19.6045 17.536V23.405C19.6045 23.5196 19.65 23.6294 19.731 23.7104C19.812 23.7914 19.9218 23.8369 20.0363 23.8369ZM4.1972 6.77328C4.1972 8.0541 5.25163 9.10799 6.53256 9.10799C7.81316 9.10788 8.86695 8.05334 8.86695 6.77274C8.86673 5.49214 7.81284 4.43835 6.53213 4.43835C5.25109 4.43835 4.1972 5.49246 4.1972 6.77328ZM4.94849 23.8369H8.11243C8.22695 23.8369 8.33679 23.7914 8.41778 23.7104C8.49876 23.6294 8.54426 23.5196 8.54426 23.405V11.311C8.54426 11.1965 8.49876 11.0866 8.41778 11.0056C8.33679 10.9247 8.22695 10.8792 8.11243 10.8792H4.94849C4.83396 10.8792 4.72412 10.9247 4.64313 11.0056C4.56215 11.0866 4.51665 11.1965 4.51665 11.311V23.405C4.51665 23.5196 4.56215 23.6294 4.64313 23.7104C4.72412 23.7914 4.83396 23.8369 4.94849 23.8369Z" fill="white"/>
</g>
<defs>
<clipPath id="clip0_29_518">
<rect width="27.6374" height="27.6374" fill="white" transform="translate(0.0947876 0.33606)"/>
</clipPath>
</defs>
</svg>
